<mxfile host="app.diagrams.net" modified="2023-05-15T05:57:50.427Z" agent="Mozilla/5.0 (Windows NT 10.0; Win64; x64) AppleWebKit/537.36 (KHTML, like Gecko) Chrome/113.0.0.0 Safari/537.36 Edg/113.0.1774.42" etag="00Ao30tsG9Mn0ffKNvRt" version="21.3.0" type="device">
  <diagram id="mye7cpsdecRdVJIh1ltE" name="Page-1">
    <mxGraphModel dx="2927" dy="2315" grid="1" gridSize="10" guides="1" tooltips="1" connect="1" arrows="1" fold="1" page="1" pageScale="1" pageWidth="827" pageHeight="1169" math="0" shadow="0">
      <root>
        <mxCell id="0" />
        <mxCell id="1" parent="0" />
        <mxCell id="GoWqnwifKlF_Yr-xNYbi-38" style="edgeStyle=none;rounded=0;orthogonalLoop=1;jettySize=auto;html=1;exitX=0;exitY=0.5;exitDx=0;exitDy=0;entryX=1;entryY=0.5;entryDx=0;entryDy=0;" parent="1" source="GoWqnwifKlF_Yr-xNYbi-1" target="GoWqnwifKlF_Yr-xNYbi-3" edge="1">
          <mxGeometry relative="1" as="geometry">
            <mxPoint x="270" y="380" as="targetPoint" />
          </mxGeometry>
        </mxCell>
        <mxCell id="qn3d2HcTWaKksIYHcs9O-18" style="edgeStyle=none;rounded=0;orthogonalLoop=1;jettySize=auto;html=1;exitX=1;exitY=0.5;exitDx=0;exitDy=0;" parent="1" source="GoWqnwifKlF_Yr-xNYbi-1" edge="1">
          <mxGeometry relative="1" as="geometry">
            <mxPoint x="530" y="380" as="targetPoint" />
          </mxGeometry>
        </mxCell>
        <mxCell id="GoWqnwifKlF_Yr-xNYbi-1" value="Яндекс Маршруты" style="rounded=1;whiteSpace=wrap;html=1;arcSize=22;" parent="1" vertex="1">
          <mxGeometry x="340" y="360" width="120" height="40" as="geometry" />
        </mxCell>
        <mxCell id="GoWqnwifKlF_Yr-xNYbi-52" style="edgeStyle=none;rounded=0;orthogonalLoop=1;jettySize=auto;html=1;exitX=0;exitY=0.5;exitDx=0;exitDy=0;entryX=1;entryY=0.5;entryDx=0;entryDy=0;" parent="1" source="GoWqnwifKlF_Yr-xNYbi-3" target="GoWqnwifKlF_Yr-xNYbi-43" edge="1">
          <mxGeometry relative="1" as="geometry" />
        </mxCell>
        <mxCell id="OxW7yi1mNQBKnJ8u3WXz-1" style="rounded=0;orthogonalLoop=1;jettySize=auto;html=1;exitX=0;exitY=0.5;exitDx=0;exitDy=0;entryX=1;entryY=0.5;entryDx=0;entryDy=0;" parent="1" source="GoWqnwifKlF_Yr-xNYbi-3" target="GoWqnwifKlF_Yr-xNYbi-45" edge="1">
          <mxGeometry relative="1" as="geometry" />
        </mxCell>
        <mxCell id="OxW7yi1mNQBKnJ8u3WXz-3" style="edgeStyle=none;rounded=0;orthogonalLoop=1;jettySize=auto;html=1;exitX=0;exitY=0.5;exitDx=0;exitDy=0;entryX=1;entryY=0.5;entryDx=0;entryDy=0;" parent="1" source="GoWqnwifKlF_Yr-xNYbi-3" target="OxW7yi1mNQBKnJ8u3WXz-2" edge="1">
          <mxGeometry relative="1" as="geometry" />
        </mxCell>
        <mxCell id="OxW7yi1mNQBKnJ8u3WXz-5" style="edgeStyle=none;rounded=0;orthogonalLoop=1;jettySize=auto;html=1;exitX=0;exitY=0.5;exitDx=0;exitDy=0;entryX=1;entryY=0.5;entryDx=0;entryDy=0;" parent="1" source="GoWqnwifKlF_Yr-xNYbi-3" edge="1" target="BA03BGmGkTq6ve4M8e0W-2">
          <mxGeometry relative="1" as="geometry">
            <mxPoint x="50" y="550" as="targetPoint" />
          </mxGeometry>
        </mxCell>
        <mxCell id="GoWqnwifKlF_Yr-xNYbi-3" value="Интерфейс" style="rounded=1;whiteSpace=wrap;html=1;arcSize=22;" parent="1" vertex="1">
          <mxGeometry x="140" y="360" width="120" height="40" as="geometry" />
        </mxCell>
        <mxCell id="oigtg8h2ie4QQOlHJKOF-9" style="edgeStyle=none;rounded=0;orthogonalLoop=1;jettySize=auto;html=1;exitX=1;exitY=0.5;exitDx=0;exitDy=0;entryX=0;entryY=0.5;entryDx=0;entryDy=0;" parent="1" source="GoWqnwifKlF_Yr-xNYbi-4" edge="1" target="BA03BGmGkTq6ve4M8e0W-43">
          <mxGeometry relative="1" as="geometry">
            <mxPoint x="960" y="230" as="targetPoint" />
          </mxGeometry>
        </mxCell>
        <mxCell id="oigtg8h2ie4QQOlHJKOF-10" style="edgeStyle=none;rounded=0;orthogonalLoop=1;jettySize=auto;html=1;exitX=1;exitY=0.5;exitDx=0;exitDy=0;entryX=0;entryY=0.5;entryDx=0;entryDy=0;" parent="1" source="GoWqnwifKlF_Yr-xNYbi-4" edge="1" target="BA03BGmGkTq6ve4M8e0W-44">
          <mxGeometry relative="1" as="geometry">
            <mxPoint x="960" y="270" as="targetPoint" />
          </mxGeometry>
        </mxCell>
        <mxCell id="GoWqnwifKlF_Yr-xNYbi-4" value="Проверка правильности ввода данных в поля" style="rounded=1;whiteSpace=wrap;html=1;arcSize=22;" parent="1" vertex="1">
          <mxGeometry x="770" y="250" width="120" height="40" as="geometry" />
        </mxCell>
        <mxCell id="oigtg8h2ie4QQOlHJKOF-11" style="edgeStyle=none;rounded=0;orthogonalLoop=1;jettySize=auto;html=1;exitX=1;exitY=0.5;exitDx=0;exitDy=0;entryX=0;entryY=0.5;entryDx=0;entryDy=0;" parent="1" source="GoWqnwifKlF_Yr-xNYbi-5" edge="1" target="BA03BGmGkTq6ve4M8e0W-19">
          <mxGeometry relative="1" as="geometry">
            <mxPoint x="940" y="390" as="targetPoint" />
            <mxPoint x="900" y="480" as="sourcePoint" />
          </mxGeometry>
        </mxCell>
        <mxCell id="oigtg8h2ie4QQOlHJKOF-12" style="edgeStyle=none;rounded=0;orthogonalLoop=1;jettySize=auto;html=1;exitX=1;exitY=0.5;exitDx=0;exitDy=0;entryX=0;entryY=0.5;entryDx=0;entryDy=0;" parent="1" source="GoWqnwifKlF_Yr-xNYbi-5" edge="1" target="BA03BGmGkTq6ve4M8e0W-20">
          <mxGeometry relative="1" as="geometry">
            <mxPoint x="960" y="320" as="targetPoint" />
          </mxGeometry>
        </mxCell>
        <mxCell id="GoWqnwifKlF_Yr-xNYbi-5" value="Выбор вида транспорта и режима" style="rounded=1;whiteSpace=wrap;html=1;arcSize=22;" parent="1" vertex="1">
          <mxGeometry x="760" y="330" width="120" height="40" as="geometry" />
        </mxCell>
        <mxCell id="oigtg8h2ie4QQOlHJKOF-6" style="edgeStyle=none;rounded=0;orthogonalLoop=1;jettySize=auto;html=1;exitX=0;exitY=0.5;exitDx=0;exitDy=0;entryX=1;entryY=0.5;entryDx=0;entryDy=0;" parent="1" source="GoWqnwifKlF_Yr-xNYbi-43" target="0HKfcTA-yMvHJuPKgxeM-6" edge="1">
          <mxGeometry relative="1" as="geometry">
            <mxPoint x="-160" y="350" as="targetPoint" />
          </mxGeometry>
        </mxCell>
        <mxCell id="oigtg8h2ie4QQOlHJKOF-7" style="edgeStyle=none;rounded=0;orthogonalLoop=1;jettySize=auto;html=1;exitX=0;exitY=0.5;exitDx=0;exitDy=0;entryX=1;entryY=0.5;entryDx=0;entryDy=0;" parent="1" source="GoWqnwifKlF_Yr-xNYbi-43" target="0HKfcTA-yMvHJuPKgxeM-7" edge="1">
          <mxGeometry relative="1" as="geometry">
            <mxPoint x="-160" y="390" as="targetPoint" />
          </mxGeometry>
        </mxCell>
        <mxCell id="oigtg8h2ie4QQOlHJKOF-8" style="edgeStyle=none;rounded=0;orthogonalLoop=1;jettySize=auto;html=1;exitX=0;exitY=0.5;exitDx=0;exitDy=0;entryX=1;entryY=0.5;entryDx=0;entryDy=0;" parent="1" source="GoWqnwifKlF_Yr-xNYbi-43" target="0HKfcTA-yMvHJuPKgxeM-5" edge="1">
          <mxGeometry relative="1" as="geometry">
            <mxPoint x="-160" y="320" as="targetPoint" />
          </mxGeometry>
        </mxCell>
        <mxCell id="GoWqnwifKlF_Yr-xNYbi-43" value="Панель выбора времени" style="rounded=1;whiteSpace=wrap;html=1;arcSize=22;" parent="1" vertex="1">
          <mxGeometry x="-80" y="340" width="120" height="40" as="geometry" />
        </mxCell>
        <mxCell id="oigtg8h2ie4QQOlHJKOF-4" style="edgeStyle=none;rounded=0;orthogonalLoop=1;jettySize=auto;html=1;exitX=0;exitY=0.5;exitDx=0;exitDy=0;entryX=1;entryY=0.5;entryDx=0;entryDy=0;" parent="1" source="GoWqnwifKlF_Yr-xNYbi-45" target="0HKfcTA-yMvHJuPKgxeM-4" edge="1">
          <mxGeometry relative="1" as="geometry">
            <mxPoint x="-160" y="290" as="targetPoint" />
          </mxGeometry>
        </mxCell>
        <mxCell id="oigtg8h2ie4QQOlHJKOF-5" style="edgeStyle=none;rounded=0;orthogonalLoop=1;jettySize=auto;html=1;exitX=0;exitY=0.25;exitDx=0;exitDy=0;entryX=1;entryY=0.5;entryDx=0;entryDy=0;" parent="1" source="GoWqnwifKlF_Yr-xNYbi-45" target="0HKfcTA-yMvHJuPKgxeM-3" edge="1">
          <mxGeometry relative="1" as="geometry">
            <mxPoint x="-160" y="230" as="targetPoint" />
          </mxGeometry>
        </mxCell>
        <mxCell id="GoWqnwifKlF_Yr-xNYbi-45" value="Панель выбора адреса" style="rounded=1;whiteSpace=wrap;html=1;arcSize=22;" parent="1" vertex="1">
          <mxGeometry x="-80" y="250" width="120" height="40" as="geometry" />
        </mxCell>
        <mxCell id="qn3d2HcTWaKksIYHcs9O-7" style="edgeStyle=none;rounded=0;orthogonalLoop=1;jettySize=auto;html=1;exitX=1;exitY=0.5;exitDx=0;exitDy=0;entryX=0;entryY=0.5;entryDx=0;entryDy=0;" parent="1" source="qn3d2HcTWaKksIYHcs9O-5" target="GoWqnwifKlF_Yr-xNYbi-5" edge="1">
          <mxGeometry relative="1" as="geometry" />
        </mxCell>
        <mxCell id="qn3d2HcTWaKksIYHcs9O-15" style="edgeStyle=none;rounded=0;orthogonalLoop=1;jettySize=auto;html=1;exitX=1;exitY=0.5;exitDx=0;exitDy=0;entryX=0;entryY=0.5;entryDx=0;entryDy=0;" parent="1" source="qn3d2HcTWaKksIYHcs9O-5" target="qn3d2HcTWaKksIYHcs9O-14" edge="1">
          <mxGeometry relative="1" as="geometry">
            <mxPoint x="760" y="380" as="targetPoint" />
          </mxGeometry>
        </mxCell>
        <mxCell id="OxW7yi1mNQBKnJ8u3WXz-6" style="edgeStyle=none;rounded=0;orthogonalLoop=1;jettySize=auto;html=1;exitX=1;exitY=0.5;exitDx=0;exitDy=0;entryX=0;entryY=0.5;entryDx=0;entryDy=0;" parent="1" source="qn3d2HcTWaKksIYHcs9O-5" target="GoWqnwifKlF_Yr-xNYbi-4" edge="1">
          <mxGeometry relative="1" as="geometry">
            <mxPoint x="770" y="500" as="targetPoint" />
          </mxGeometry>
        </mxCell>
        <mxCell id="OxW7yi1mNQBKnJ8u3WXz-7" style="edgeStyle=none;rounded=0;orthogonalLoop=1;jettySize=auto;html=1;exitX=1;exitY=0.5;exitDx=0;exitDy=0;" parent="1" source="qn3d2HcTWaKksIYHcs9O-5" edge="1">
          <mxGeometry relative="1" as="geometry">
            <mxPoint x="760" y="420" as="targetPoint" />
          </mxGeometry>
        </mxCell>
        <mxCell id="qn3d2HcTWaKksIYHcs9O-5" value="Логика" style="rounded=1;whiteSpace=wrap;html=1;arcSize=22;" parent="1" vertex="1">
          <mxGeometry x="530" y="360" width="120" height="40" as="geometry" />
        </mxCell>
        <mxCell id="oigtg8h2ie4QQOlHJKOF-13" style="edgeStyle=none;rounded=0;orthogonalLoop=1;jettySize=auto;html=1;exitX=1;exitY=0.5;exitDx=0;exitDy=0;entryX=0;entryY=0.5;entryDx=0;entryDy=0;" parent="1" source="qn3d2HcTWaKksIYHcs9O-14" edge="1" target="BA03BGmGkTq6ve4M8e0W-12">
          <mxGeometry relative="1" as="geometry">
            <mxPoint x="960" y="460" as="targetPoint" />
          </mxGeometry>
        </mxCell>
        <mxCell id="qn3d2HcTWaKksIYHcs9O-14" value="Расчёт времени и стоимости" style="rounded=1;whiteSpace=wrap;html=1;arcSize=22;" parent="1" vertex="1">
          <mxGeometry x="760" y="440" width="120" height="40" as="geometry" />
        </mxCell>
        <mxCell id="oigtg8h2ie4QQOlHJKOF-1" style="rounded=0;orthogonalLoop=1;jettySize=auto;html=1;exitX=0;exitY=0.5;exitDx=0;exitDy=0;entryX=1;entryY=0.5;entryDx=0;entryDy=0;" parent="1" source="OxW7yi1mNQBKnJ8u3WXz-2" target="0HKfcTA-yMvHJuPKgxeM-8" edge="1">
          <mxGeometry relative="1" as="geometry">
            <mxPoint x="-160" y="510" as="targetPoint" />
          </mxGeometry>
        </mxCell>
        <mxCell id="oigtg8h2ie4QQOlHJKOF-3" style="edgeStyle=none;rounded=0;orthogonalLoop=1;jettySize=auto;html=1;exitX=0;exitY=0.5;exitDx=0;exitDy=0;entryX=1;entryY=0.5;entryDx=0;entryDy=0;" parent="1" source="OxW7yi1mNQBKnJ8u3WXz-2" target="0HKfcTA-yMvHJuPKgxeM-9" edge="1">
          <mxGeometry relative="1" as="geometry">
            <mxPoint x="-140" y="550" as="targetPoint" />
          </mxGeometry>
        </mxCell>
        <mxCell id="OxW7yi1mNQBKnJ8u3WXz-2" value="Панель выбора&lt;br&gt;вида транспорта и режима" style="rounded=1;whiteSpace=wrap;html=1;arcSize=22;" parent="1" vertex="1">
          <mxGeometry x="-80" y="460" width="120" height="40" as="geometry" />
        </mxCell>
        <mxCell id="0HKfcTA-yMvHJuPKgxeM-17" value="" style="edgeStyle=orthogonalEdgeStyle;rounded=0;orthogonalLoop=1;jettySize=auto;html=1;" parent="1" source="0HKfcTA-yMvHJuPKgxeM-3" target="0HKfcTA-yMvHJuPKgxeM-16" edge="1">
          <mxGeometry relative="1" as="geometry" />
        </mxCell>
        <mxCell id="0HKfcTA-yMvHJuPKgxeM-3" value="Поле ввода &quot;откуда?&quot;" style="rounded=1;whiteSpace=wrap;html=1;" parent="1" vertex="1">
          <mxGeometry x="-260" y="70" width="120" height="60" as="geometry" />
        </mxCell>
        <mxCell id="0HKfcTA-yMvHJuPKgxeM-19" value="" style="edgeStyle=orthogonalEdgeStyle;rounded=0;orthogonalLoop=1;jettySize=auto;html=1;" parent="1" source="0HKfcTA-yMvHJuPKgxeM-4" target="0HKfcTA-yMvHJuPKgxeM-18" edge="1">
          <mxGeometry relative="1" as="geometry" />
        </mxCell>
        <mxCell id="0HKfcTA-yMvHJuPKgxeM-4" value="Поле ввода &quot;куда?&quot;" style="rounded=1;whiteSpace=wrap;html=1;" parent="1" vertex="1">
          <mxGeometry x="-260" y="180" width="120" height="60" as="geometry" />
        </mxCell>
        <mxCell id="0HKfcTA-yMvHJuPKgxeM-5" value="Надпись &quot;Время начала поездки&quot;" style="rounded=1;whiteSpace=wrap;html=1;" parent="1" vertex="1">
          <mxGeometry x="-260" y="280" width="120" height="60" as="geometry" />
        </mxCell>
        <mxCell id="0HKfcTA-yMvHJuPKgxeM-13" value="" style="edgeStyle=orthogonalEdgeStyle;rounded=0;orthogonalLoop=1;jettySize=auto;html=1;" parent="1" source="0HKfcTA-yMvHJuPKgxeM-6" target="0HKfcTA-yMvHJuPKgxeM-12" edge="1">
          <mxGeometry relative="1" as="geometry" />
        </mxCell>
        <mxCell id="0HKfcTA-yMvHJuPKgxeM-6" value="Поле ввода &quot;часы&quot;" style="rounded=1;whiteSpace=wrap;html=1;" parent="1" vertex="1">
          <mxGeometry x="-260" y="390" width="120" height="60" as="geometry" />
        </mxCell>
        <mxCell id="0HKfcTA-yMvHJuPKgxeM-15" value="" style="edgeStyle=orthogonalEdgeStyle;rounded=0;orthogonalLoop=1;jettySize=auto;html=1;" parent="1" source="0HKfcTA-yMvHJuPKgxeM-7" target="0HKfcTA-yMvHJuPKgxeM-14" edge="1">
          <mxGeometry relative="1" as="geometry" />
        </mxCell>
        <mxCell id="0HKfcTA-yMvHJuPKgxeM-7" value="Поле ввода &quot;минуты&quot;" style="rounded=1;whiteSpace=wrap;html=1;" parent="1" vertex="1">
          <mxGeometry x="-260" y="490" width="120" height="60" as="geometry" />
        </mxCell>
        <mxCell id="0HKfcTA-yMvHJuPKgxeM-8" value="Панель выбора режима маршрута" style="rounded=1;whiteSpace=wrap;html=1;" parent="1" vertex="1">
          <mxGeometry x="-260" y="590" width="120" height="60" as="geometry" />
        </mxCell>
        <mxCell id="0HKfcTA-yMvHJuPKgxeM-9" value="Панель выбора транспорта" style="rounded=1;whiteSpace=wrap;html=1;" parent="1" vertex="1">
          <mxGeometry x="-260" y="705" width="120" height="60" as="geometry" />
        </mxCell>
        <mxCell id="0HKfcTA-yMvHJuPKgxeM-12" value="&lt;ul&gt;&lt;li&gt;Только целые числа&lt;/li&gt;&lt;li&gt;от 0 до 23&lt;/li&gt;&lt;/ul&gt;" style="text;strokeColor=none;fillColor=none;html=1;whiteSpace=wrap;verticalAlign=middle;overflow=hidden;" parent="1" vertex="1">
          <mxGeometry x="-490" y="380" width="160" height="80" as="geometry" />
        </mxCell>
        <mxCell id="0HKfcTA-yMvHJuPKgxeM-14" value="&lt;ul&gt;&lt;li&gt;Только целые числа&lt;/li&gt;&lt;li&gt;от 0 до 59&lt;/li&gt;&lt;/ul&gt;" style="text;strokeColor=none;fillColor=none;html=1;whiteSpace=wrap;verticalAlign=middle;overflow=hidden;" parent="1" vertex="1">
          <mxGeometry x="-490" y="480" width="160" height="80" as="geometry" />
        </mxCell>
        <mxCell id="0HKfcTA-yMvHJuPKgxeM-16" value="&lt;ul&gt;&lt;li&gt;русские буквы,&lt;/li&gt;&lt;li&gt;цифры,&amp;nbsp;&lt;/li&gt;&lt;li&gt;пробел,&lt;/li&gt;&lt;li&gt;тире,&amp;nbsp;&lt;/li&gt;&lt;li&gt;точка,&amp;nbsp;&lt;/li&gt;&lt;li&gt;запятая;&lt;br&gt;&lt;/li&gt;&lt;li&gt;Максимум 50 символов&lt;/li&gt;&lt;/ul&gt;" style="text;strokeColor=none;fillColor=none;html=1;whiteSpace=wrap;verticalAlign=middle;overflow=hidden;" parent="1" vertex="1">
          <mxGeometry x="-620" y="10" width="190" height="130" as="geometry" />
        </mxCell>
        <mxCell id="0HKfcTA-yMvHJuPKgxeM-18" value="&lt;ul&gt;&lt;li style=&quot;border-color: var(--border-color);&quot;&gt;русские буквы,&amp;nbsp;&lt;/li&gt;&lt;li style=&quot;border-color: var(--border-color);&quot;&gt;цифры,&amp;nbsp;&lt;/li&gt;&lt;li style=&quot;border-color: var(--border-color);&quot;&gt;пробел,&amp;nbsp;&lt;/li&gt;&lt;li style=&quot;border-color: var(--border-color);&quot;&gt;тире,&amp;nbsp;&lt;/li&gt;&lt;li style=&quot;border-color: var(--border-color);&quot;&gt;точка,&amp;nbsp;&lt;/li&gt;&lt;li style=&quot;border-color: var(--border-color);&quot;&gt;запятая;&lt;br style=&quot;border-color: var(--border-color);&quot;&gt;&lt;/li&gt;&lt;li style=&quot;border-color: var(--border-color);&quot;&gt;Максимум 50 символов&lt;/li&gt;&lt;/ul&gt;" style="text;strokeColor=none;fillColor=none;html=1;whiteSpace=wrap;verticalAlign=middle;overflow=hidden;" parent="1" vertex="1">
          <mxGeometry x="-630" y="170" width="200" height="130" as="geometry" />
        </mxCell>
        <mxCell id="0HKfcTA-yMvHJuPKgxeM-33" value="" style="edgeStyle=orthogonalEdgeStyle;rounded=0;orthogonalLoop=1;jettySize=auto;html=1;" parent="1" source="0HKfcTA-yMvHJuPKgxeM-22" target="0HKfcTA-yMvHJuPKgxeM-30" edge="1">
          <mxGeometry relative="1" as="geometry" />
        </mxCell>
        <mxCell id="0HKfcTA-yMvHJuPKgxeM-22" value="Оптимальный" style="rounded=1;whiteSpace=wrap;html=1;" parent="1" vertex="1">
          <mxGeometry x="-440" y="570" width="100" height="30" as="geometry" />
        </mxCell>
        <mxCell id="0HKfcTA-yMvHJuPKgxeM-34" value="" style="edgeStyle=orthogonalEdgeStyle;rounded=0;orthogonalLoop=1;jettySize=auto;html=1;entryX=1;entryY=0.5;entryDx=0;entryDy=0;" parent="1" source="0HKfcTA-yMvHJuPKgxeM-23" target="0HKfcTA-yMvHJuPKgxeM-31" edge="1">
          <mxGeometry relative="1" as="geometry" />
        </mxCell>
        <mxCell id="0HKfcTA-yMvHJuPKgxeM-23" value="Быстрый" style="rounded=1;whiteSpace=wrap;html=1;" parent="1" vertex="1">
          <mxGeometry x="-440" y="615" width="100" height="35" as="geometry" />
        </mxCell>
        <mxCell id="0HKfcTA-yMvHJuPKgxeM-35" value="" style="edgeStyle=orthogonalEdgeStyle;rounded=0;orthogonalLoop=1;jettySize=auto;html=1;" parent="1" source="0HKfcTA-yMvHJuPKgxeM-24" target="0HKfcTA-yMvHJuPKgxeM-32" edge="1">
          <mxGeometry relative="1" as="geometry" />
        </mxCell>
        <mxCell id="0HKfcTA-yMvHJuPKgxeM-24" value="Свой" style="rounded=1;whiteSpace=wrap;html=1;" parent="1" vertex="1">
          <mxGeometry x="-440" y="660" width="100" height="30" as="geometry" />
        </mxCell>
        <mxCell id="0HKfcTA-yMvHJuPKgxeM-27" value="" style="endArrow=classic;html=1;rounded=0;exitX=-0.028;exitY=0.38;exitDx=0;exitDy=0;exitPerimeter=0;entryX=1;entryY=0.5;entryDx=0;entryDy=0;" parent="1" source="0HKfcTA-yMvHJuPKgxeM-8" target="0HKfcTA-yMvHJuPKgxeM-22" edge="1">
          <mxGeometry width="50" height="50" relative="1" as="geometry">
            <mxPoint x="-320" y="590" as="sourcePoint" />
            <mxPoint x="-270" y="540" as="targetPoint" />
          </mxGeometry>
        </mxCell>
        <mxCell id="0HKfcTA-yMvHJuPKgxeM-28" value="" style="endArrow=classic;html=1;rounded=0;entryX=1;entryY=0.5;entryDx=0;entryDy=0;exitX=0;exitY=0.5;exitDx=0;exitDy=0;" parent="1" source="0HKfcTA-yMvHJuPKgxeM-8" target="0HKfcTA-yMvHJuPKgxeM-23" edge="1">
          <mxGeometry width="50" height="50" relative="1" as="geometry">
            <mxPoint x="-260" y="620" as="sourcePoint" />
            <mxPoint x="-338" y="572" as="targetPoint" />
          </mxGeometry>
        </mxCell>
        <mxCell id="0HKfcTA-yMvHJuPKgxeM-29" value="" style="endArrow=classic;html=1;rounded=0;entryX=1;entryY=0.25;entryDx=0;entryDy=0;" parent="1" target="0HKfcTA-yMvHJuPKgxeM-24" edge="1">
          <mxGeometry width="50" height="50" relative="1" as="geometry">
            <mxPoint x="-260" y="620" as="sourcePoint" />
            <mxPoint x="-328" y="582" as="targetPoint" />
          </mxGeometry>
        </mxCell>
        <mxCell id="0HKfcTA-yMvHJuPKgxeM-30" value="&lt;ul&gt;&lt;li&gt;Активен&lt;/li&gt;&lt;li&gt;Выбран&lt;/li&gt;&lt;/ul&gt;" style="text;strokeColor=none;fillColor=none;html=1;whiteSpace=wrap;verticalAlign=middle;overflow=hidden;" parent="1" vertex="1">
          <mxGeometry x="-590" y="520" width="100" height="80" as="geometry" />
        </mxCell>
        <mxCell id="0HKfcTA-yMvHJuPKgxeM-31" value="&lt;ul&gt;&lt;li&gt;Активен&lt;/li&gt;&lt;li&gt;Выбран&lt;/li&gt;&lt;/ul&gt;" style="text;strokeColor=none;fillColor=none;html=1;whiteSpace=wrap;verticalAlign=middle;overflow=hidden;" parent="1" vertex="1">
          <mxGeometry x="-590" y="592.5" width="100" height="80" as="geometry" />
        </mxCell>
        <mxCell id="0HKfcTA-yMvHJuPKgxeM-32" value="&lt;ul&gt;&lt;li&gt;Активен&lt;/li&gt;&lt;li&gt;Выбран&lt;/li&gt;&lt;/ul&gt;" style="text;strokeColor=none;fillColor=none;html=1;whiteSpace=wrap;verticalAlign=middle;overflow=hidden;" parent="1" vertex="1">
          <mxGeometry x="-590" y="650" width="100" height="80" as="geometry" />
        </mxCell>
        <mxCell id="0HKfcTA-yMvHJuPKgxeM-54" value="" style="edgeStyle=orthogonalEdgeStyle;rounded=0;orthogonalLoop=1;jettySize=auto;html=1;entryX=1;entryY=0.5;entryDx=0;entryDy=0;" parent="1" source="0HKfcTA-yMvHJuPKgxeM-36" target="0HKfcTA-yMvHJuPKgxeM-48" edge="1">
          <mxGeometry relative="1" as="geometry" />
        </mxCell>
        <mxCell id="0HKfcTA-yMvHJuPKgxeM-36" value="Велосипед" style="rounded=1;whiteSpace=wrap;html=1;" parent="1" vertex="1">
          <mxGeometry x="-440" y="835" width="100" height="30" as="geometry" />
        </mxCell>
        <mxCell id="0HKfcTA-yMvHJuPKgxeM-45" value="" style="edgeStyle=orthogonalEdgeStyle;rounded=0;orthogonalLoop=1;jettySize=auto;html=1;" parent="1" source="0HKfcTA-yMvHJuPKgxeM-37" edge="1">
          <mxGeometry relative="1" as="geometry">
            <mxPoint x="-500" y="749.9999999999995" as="targetPoint" />
          </mxGeometry>
        </mxCell>
        <mxCell id="0HKfcTA-yMvHJuPKgxeM-37" value="Пешком" style="rounded=1;whiteSpace=wrap;html=1;" parent="1" vertex="1">
          <mxGeometry x="-440" y="735" width="100" height="30" as="geometry" />
        </mxCell>
        <mxCell id="0HKfcTA-yMvHJuPKgxeM-47" value="" style="edgeStyle=orthogonalEdgeStyle;rounded=0;orthogonalLoop=1;jettySize=auto;html=1;" parent="1" source="0HKfcTA-yMvHJuPKgxeM-38" target="0HKfcTA-yMvHJuPKgxeM-46" edge="1">
          <mxGeometry relative="1" as="geometry" />
        </mxCell>
        <mxCell id="0HKfcTA-yMvHJuPKgxeM-38" value="Самокат" style="rounded=1;whiteSpace=wrap;html=1;" parent="1" vertex="1">
          <mxGeometry x="-440" y="785" width="100" height="30" as="geometry" />
        </mxCell>
        <mxCell id="0HKfcTA-yMvHJuPKgxeM-56" value="" style="edgeStyle=orthogonalEdgeStyle;rounded=0;orthogonalLoop=1;jettySize=auto;html=1;entryX=1;entryY=0.5;entryDx=0;entryDy=0;" parent="1" source="0HKfcTA-yMvHJuPKgxeM-39" target="0HKfcTA-yMvHJuPKgxeM-50" edge="1">
          <mxGeometry relative="1" as="geometry">
            <Array as="points">
              <mxPoint x="-480" y="950" />
              <mxPoint x="-480" y="950" />
            </Array>
          </mxGeometry>
        </mxCell>
        <mxCell id="0HKfcTA-yMvHJuPKgxeM-39" value="Каршеринг" style="rounded=1;whiteSpace=wrap;html=1;" parent="1" vertex="1">
          <mxGeometry x="-440" y="935" width="100" height="30" as="geometry" />
        </mxCell>
        <mxCell id="0HKfcTA-yMvHJuPKgxeM-55" value="" style="edgeStyle=orthogonalEdgeStyle;rounded=0;orthogonalLoop=1;jettySize=auto;html=1;entryX=1;entryY=0.5;entryDx=0;entryDy=0;" parent="1" source="0HKfcTA-yMvHJuPKgxeM-40" target="0HKfcTA-yMvHJuPKgxeM-49" edge="1">
          <mxGeometry relative="1" as="geometry" />
        </mxCell>
        <mxCell id="0HKfcTA-yMvHJuPKgxeM-40" value="Такси" style="rounded=1;whiteSpace=wrap;html=1;" parent="1" vertex="1">
          <mxGeometry x="-440" y="885" width="100" height="30" as="geometry" />
        </mxCell>
        <mxCell id="0HKfcTA-yMvHJuPKgxeM-52" value="" style="edgeStyle=orthogonalEdgeStyle;rounded=0;orthogonalLoop=1;jettySize=auto;html=1;" parent="1" source="0HKfcTA-yMvHJuPKgxeM-41" target="0HKfcTA-yMvHJuPKgxeM-51" edge="1">
          <mxGeometry relative="1" as="geometry" />
        </mxCell>
        <mxCell id="0HKfcTA-yMvHJuPKgxeM-41" value="Собственный автомобиль" style="rounded=1;whiteSpace=wrap;html=1;" parent="1" vertex="1">
          <mxGeometry x="-440" y="985" width="100" height="40" as="geometry" />
        </mxCell>
        <mxCell id="0HKfcTA-yMvHJuPKgxeM-44" value="&lt;ul&gt;&lt;li&gt;Активен&lt;/li&gt;&lt;li&gt;Выбран&lt;/li&gt;&lt;/ul&gt;" style="text;strokeColor=none;fillColor=none;html=1;whiteSpace=wrap;verticalAlign=middle;overflow=hidden;" parent="1" vertex="1">
          <mxGeometry x="-600" y="705" width="100" height="80" as="geometry" />
        </mxCell>
        <mxCell id="0HKfcTA-yMvHJuPKgxeM-46" value="&lt;ul&gt;&lt;li&gt;Активен&lt;/li&gt;&lt;li&gt;Выбран&lt;/li&gt;&lt;/ul&gt;" style="text;strokeColor=none;fillColor=none;html=1;whiteSpace=wrap;verticalAlign=middle;overflow=hidden;" parent="1" vertex="1">
          <mxGeometry x="-600" y="760" width="100" height="80" as="geometry" />
        </mxCell>
        <mxCell id="0HKfcTA-yMvHJuPKgxeM-48" value="&lt;ul&gt;&lt;li&gt;Активен&lt;/li&gt;&lt;li&gt;Выбран&lt;/li&gt;&lt;/ul&gt;" style="text;strokeColor=none;fillColor=none;html=1;whiteSpace=wrap;verticalAlign=middle;overflow=hidden;" parent="1" vertex="1">
          <mxGeometry x="-600" y="810" width="100" height="80" as="geometry" />
        </mxCell>
        <mxCell id="0HKfcTA-yMvHJuPKgxeM-49" value="&lt;ul&gt;&lt;li&gt;Активен&lt;/li&gt;&lt;li&gt;Выбран&lt;/li&gt;&lt;/ul&gt;" style="text;strokeColor=none;fillColor=none;html=1;whiteSpace=wrap;verticalAlign=middle;overflow=hidden;" parent="1" vertex="1">
          <mxGeometry x="-600" y="860" width="100" height="80" as="geometry" />
        </mxCell>
        <mxCell id="0HKfcTA-yMvHJuPKgxeM-50" value="&lt;ul&gt;&lt;li&gt;Активен&lt;/li&gt;&lt;li&gt;Выбран&lt;/li&gt;&lt;/ul&gt;" style="text;strokeColor=none;fillColor=none;html=1;whiteSpace=wrap;verticalAlign=middle;overflow=hidden;" parent="1" vertex="1">
          <mxGeometry x="-600" y="910" width="100" height="80" as="geometry" />
        </mxCell>
        <mxCell id="0HKfcTA-yMvHJuPKgxeM-51" value="&lt;ul&gt;&lt;li&gt;Активен&lt;/li&gt;&lt;li&gt;Выбран&lt;/li&gt;&lt;/ul&gt;" style="text;strokeColor=none;fillColor=none;html=1;whiteSpace=wrap;verticalAlign=middle;overflow=hidden;" parent="1" vertex="1">
          <mxGeometry x="-600" y="965" width="100" height="80" as="geometry" />
        </mxCell>
        <mxCell id="0HKfcTA-yMvHJuPKgxeM-57" value="" style="endArrow=classic;html=1;rounded=0;entryX=1;entryY=0.5;entryDx=0;entryDy=0;exitX=0;exitY=0.5;exitDx=0;exitDy=0;" parent="1" source="0HKfcTA-yMvHJuPKgxeM-9" target="0HKfcTA-yMvHJuPKgxeM-37" edge="1">
          <mxGeometry width="50" height="50" relative="1" as="geometry">
            <mxPoint x="-250" y="635" as="sourcePoint" />
            <mxPoint x="-330" y="683" as="targetPoint" />
          </mxGeometry>
        </mxCell>
        <mxCell id="0HKfcTA-yMvHJuPKgxeM-59" value="" style="endArrow=classic;html=1;rounded=0;entryX=1;entryY=0.25;entryDx=0;entryDy=0;exitX=0;exitY=0.5;exitDx=0;exitDy=0;" parent="1" source="0HKfcTA-yMvHJuPKgxeM-9" edge="1">
          <mxGeometry width="50" height="50" relative="1" as="geometry">
            <mxPoint x="-260" y="755" as="sourcePoint" />
            <mxPoint x="-340" y="803" as="targetPoint" />
          </mxGeometry>
        </mxCell>
        <mxCell id="0HKfcTA-yMvHJuPKgxeM-60" value="" style="endArrow=classic;html=1;rounded=0;entryX=1;entryY=0.25;entryDx=0;entryDy=0;exitX=0;exitY=0.5;exitDx=0;exitDy=0;" parent="1" source="0HKfcTA-yMvHJuPKgxeM-9" edge="1">
          <mxGeometry width="50" height="50" relative="1" as="geometry">
            <mxPoint x="-260" y="795" as="sourcePoint" />
            <mxPoint x="-340" y="843" as="targetPoint" />
          </mxGeometry>
        </mxCell>
        <mxCell id="0HKfcTA-yMvHJuPKgxeM-61" value="" style="endArrow=classic;html=1;rounded=0;entryX=1;entryY=0.25;entryDx=0;entryDy=0;" parent="1" edge="1">
          <mxGeometry width="50" height="50" relative="1" as="geometry">
            <mxPoint x="-260" y="735" as="sourcePoint" />
            <mxPoint x="-340" y="903" as="targetPoint" />
          </mxGeometry>
        </mxCell>
        <mxCell id="0HKfcTA-yMvHJuPKgxeM-62" value="" style="endArrow=classic;html=1;rounded=0;entryX=1;entryY=0.25;entryDx=0;entryDy=0;exitX=0;exitY=0.5;exitDx=0;exitDy=0;" parent="1" source="0HKfcTA-yMvHJuPKgxeM-9" edge="1">
          <mxGeometry width="50" height="50" relative="1" as="geometry">
            <mxPoint x="-260" y="905" as="sourcePoint" />
            <mxPoint x="-340" y="953" as="targetPoint" />
          </mxGeometry>
        </mxCell>
        <mxCell id="0HKfcTA-yMvHJuPKgxeM-63" value="" style="endArrow=classic;html=1;rounded=0;entryX=1;entryY=0.25;entryDx=0;entryDy=0;" parent="1" edge="1">
          <mxGeometry width="50" height="50" relative="1" as="geometry">
            <mxPoint x="-260" y="735" as="sourcePoint" />
            <mxPoint x="-340" y="1003" as="targetPoint" />
          </mxGeometry>
        </mxCell>
        <mxCell id="BA03BGmGkTq6ve4M8e0W-2" value="Подвал" style="rounded=1;whiteSpace=wrap;html=1;" vertex="1" parent="1">
          <mxGeometry x="-70" y="800" width="120" height="35" as="geometry" />
        </mxCell>
        <mxCell id="BA03BGmGkTq6ve4M8e0W-3" value="Голова" style="rounded=1;whiteSpace=wrap;html=1;" vertex="1" parent="1">
          <mxGeometry x="-80" width="120" height="40" as="geometry" />
        </mxCell>
        <mxCell id="BA03BGmGkTq6ve4M8e0W-4" value="" style="endArrow=classic;html=1;rounded=0;entryX=1;entryY=0.5;entryDx=0;entryDy=0;exitX=0;exitY=0.5;exitDx=0;exitDy=0;" edge="1" parent="1" source="GoWqnwifKlF_Yr-xNYbi-3" target="BA03BGmGkTq6ve4M8e0W-3">
          <mxGeometry width="50" height="50" relative="1" as="geometry">
            <mxPoint x="90" y="100" as="sourcePoint" />
            <mxPoint x="140" y="50" as="targetPoint" />
          </mxGeometry>
        </mxCell>
        <mxCell id="BA03BGmGkTq6ve4M8e0W-5" style="edgeStyle=orthogonalEdgeStyle;rounded=0;orthogonalLoop=1;jettySize=auto;html=1;exitX=0.5;exitY=1;exitDx=0;exitDy=0;" edge="1" parent="1" source="BA03BGmGkTq6ve4M8e0W-3" target="BA03BGmGkTq6ve4M8e0W-3">
          <mxGeometry relative="1" as="geometry" />
        </mxCell>
        <mxCell id="BA03BGmGkTq6ve4M8e0W-7" value="&lt;ul&gt;&lt;li&gt;Яндекс Маршруты&lt;/li&gt;&lt;/ul&gt;" style="text;strokeColor=none;fillColor=none;html=1;whiteSpace=wrap;verticalAlign=middle;overflow=hidden;" vertex="1" parent="1">
          <mxGeometry x="-310" y="-120" width="100" height="80" as="geometry" />
        </mxCell>
        <mxCell id="BA03BGmGkTq6ve4M8e0W-8" value="" style="endArrow=classic;html=1;rounded=0;entryX=1;entryY=0.5;entryDx=0;entryDy=0;exitX=0;exitY=0.5;exitDx=0;exitDy=0;" edge="1" parent="1" source="BA03BGmGkTq6ve4M8e0W-3" target="BA03BGmGkTq6ve4M8e0W-7">
          <mxGeometry width="50" height="50" relative="1" as="geometry">
            <mxPoint x="-170" y="-20" as="sourcePoint" />
            <mxPoint x="-120" y="-70" as="targetPoint" />
          </mxGeometry>
        </mxCell>
        <mxCell id="BA03BGmGkTq6ve4M8e0W-9" value="&lt;ul&gt;&lt;li&gt;&quot;Открыть в Яндекс Картах&lt;/li&gt;&lt;li&gt;Условия использования&quot;&lt;/li&gt;&lt;/ul&gt;" style="text;strokeColor=none;fillColor=none;html=1;whiteSpace=wrap;verticalAlign=middle;overflow=hidden;" vertex="1" parent="1">
          <mxGeometry x="-310" y="870" width="190" height="80" as="geometry" />
        </mxCell>
        <mxCell id="BA03BGmGkTq6ve4M8e0W-10" value="" style="endArrow=classic;html=1;rounded=0;entryX=1;entryY=0.5;entryDx=0;entryDy=0;exitX=0;exitY=0.5;exitDx=0;exitDy=0;" edge="1" parent="1" source="BA03BGmGkTq6ve4M8e0W-2" target="BA03BGmGkTq6ve4M8e0W-9">
          <mxGeometry width="50" height="50" relative="1" as="geometry">
            <mxPoint x="-70" y="950" as="sourcePoint" />
            <mxPoint x="-20" y="900" as="targetPoint" />
          </mxGeometry>
        </mxCell>
        <mxCell id="BA03BGmGkTq6ve4M8e0W-11" value="Получение адреса точки А" style="rounded=1;whiteSpace=wrap;html=1;" vertex="1" parent="1">
          <mxGeometry x="950" y="525" width="120" height="60" as="geometry" />
        </mxCell>
        <mxCell id="BA03BGmGkTq6ve4M8e0W-12" value="Получение времени начала поездки" style="rounded=1;whiteSpace=wrap;html=1;" vertex="1" parent="1">
          <mxGeometry x="950" y="450" width="120" height="60" as="geometry" />
        </mxCell>
        <mxCell id="BA03BGmGkTq6ve4M8e0W-13" value="Получение адреса точки Б" style="rounded=1;whiteSpace=wrap;html=1;" vertex="1" parent="1">
          <mxGeometry x="950" y="602.5" width="120" height="60" as="geometry" />
        </mxCell>
        <mxCell id="BA03BGmGkTq6ve4M8e0W-14" value="Расчет стоимости поездки и времени по алгоритму" style="rounded=1;whiteSpace=wrap;html=1;" vertex="1" parent="1">
          <mxGeometry x="950" y="680" width="120" height="60" as="geometry" />
        </mxCell>
        <mxCell id="BA03BGmGkTq6ve4M8e0W-16" style="edgeStyle=none;rounded=0;orthogonalLoop=1;jettySize=auto;html=1;exitX=1;exitY=0.5;exitDx=0;exitDy=0;entryX=0;entryY=0.5;entryDx=0;entryDy=0;" edge="1" parent="1" source="qn3d2HcTWaKksIYHcs9O-14" target="BA03BGmGkTq6ve4M8e0W-11">
          <mxGeometry relative="1" as="geometry">
            <mxPoint x="960" y="470" as="targetPoint" />
            <mxPoint x="890" y="470" as="sourcePoint" />
          </mxGeometry>
        </mxCell>
        <mxCell id="BA03BGmGkTq6ve4M8e0W-17" style="edgeStyle=none;rounded=0;orthogonalLoop=1;jettySize=auto;html=1;entryX=0;entryY=0.5;entryDx=0;entryDy=0;" edge="1" parent="1" target="BA03BGmGkTq6ve4M8e0W-13">
          <mxGeometry relative="1" as="geometry">
            <mxPoint x="970" y="480" as="targetPoint" />
            <mxPoint x="880" y="460" as="sourcePoint" />
          </mxGeometry>
        </mxCell>
        <mxCell id="BA03BGmGkTq6ve4M8e0W-18" style="edgeStyle=none;rounded=0;orthogonalLoop=1;jettySize=auto;html=1;entryX=0;entryY=0.5;entryDx=0;entryDy=0;exitX=1;exitY=0.5;exitDx=0;exitDy=0;" edge="1" parent="1" source="qn3d2HcTWaKksIYHcs9O-14" target="BA03BGmGkTq6ve4M8e0W-14">
          <mxGeometry relative="1" as="geometry">
            <mxPoint x="980" y="490" as="targetPoint" />
            <mxPoint x="880" y="490" as="sourcePoint" />
          </mxGeometry>
        </mxCell>
        <mxCell id="BA03BGmGkTq6ve4M8e0W-19" value="Режим &quot;Свой&quot;" style="rounded=1;whiteSpace=wrap;html=1;" vertex="1" parent="1">
          <mxGeometry x="950" y="370" width="120" height="60" as="geometry" />
        </mxCell>
        <mxCell id="BA03BGmGkTq6ve4M8e0W-20" value="Режим &quot;Оптимальный&quot; и &quot;Быстрый&quot;" style="rounded=1;whiteSpace=wrap;html=1;" vertex="1" parent="1">
          <mxGeometry x="950" y="290" width="120" height="60" as="geometry" />
        </mxCell>
        <mxCell id="BA03BGmGkTq6ve4M8e0W-22" value="Возможность выбора транспорта" style="rounded=1;whiteSpace=wrap;html=1;" vertex="1" parent="1">
          <mxGeometry x="1150" y="500" width="120" height="60" as="geometry" />
        </mxCell>
        <mxCell id="BA03BGmGkTq6ve4M8e0W-23" value="Панель выбора транспорта кликабельна. Под каждый транспорт строится свой маршрут" style="rounded=1;whiteSpace=wrap;html=1;" vertex="1" parent="1">
          <mxGeometry x="1140" y="410" width="140" height="80" as="geometry" />
        </mxCell>
        <mxCell id="BA03BGmGkTq6ve4M8e0W-24" value="" style="endArrow=classic;html=1;rounded=0;entryX=0;entryY=0.5;entryDx=0;entryDy=0;exitX=1;exitY=0.5;exitDx=0;exitDy=0;" edge="1" parent="1" source="BA03BGmGkTq6ve4M8e0W-19" target="BA03BGmGkTq6ve4M8e0W-23">
          <mxGeometry width="50" height="50" relative="1" as="geometry">
            <mxPoint x="1100" y="410" as="sourcePoint" />
            <mxPoint x="1150" y="360" as="targetPoint" />
          </mxGeometry>
        </mxCell>
        <mxCell id="BA03BGmGkTq6ve4M8e0W-25" value="" style="endArrow=classic;html=1;rounded=0;entryX=0;entryY=0.5;entryDx=0;entryDy=0;exitX=1;exitY=0.5;exitDx=0;exitDy=0;" edge="1" parent="1" source="BA03BGmGkTq6ve4M8e0W-19" target="BA03BGmGkTq6ve4M8e0W-22">
          <mxGeometry width="50" height="50" relative="1" as="geometry">
            <mxPoint x="1110" y="420" as="sourcePoint" />
            <mxPoint x="1160" y="370" as="targetPoint" />
          </mxGeometry>
        </mxCell>
        <mxCell id="BA03BGmGkTq6ve4M8e0W-27" value="Велосипед" style="rounded=1;whiteSpace=wrap;html=1;" vertex="1" parent="1">
          <mxGeometry x="1370" y="580" width="100" height="30" as="geometry" />
        </mxCell>
        <mxCell id="BA03BGmGkTq6ve4M8e0W-28" value="Пешком" style="rounded=1;whiteSpace=wrap;html=1;" vertex="1" parent="1">
          <mxGeometry x="1370" y="480" width="100" height="30" as="geometry" />
        </mxCell>
        <mxCell id="BA03BGmGkTq6ve4M8e0W-29" value="Самокат" style="rounded=1;whiteSpace=wrap;html=1;" vertex="1" parent="1">
          <mxGeometry x="1370" y="530" width="100" height="30" as="geometry" />
        </mxCell>
        <mxCell id="BA03BGmGkTq6ve4M8e0W-30" value="Каршеринг" style="rounded=1;whiteSpace=wrap;html=1;" vertex="1" parent="1">
          <mxGeometry x="1370" y="680" width="100" height="30" as="geometry" />
        </mxCell>
        <mxCell id="BA03BGmGkTq6ve4M8e0W-31" value="Такси" style="rounded=1;whiteSpace=wrap;html=1;" vertex="1" parent="1">
          <mxGeometry x="1370" y="630" width="100" height="30" as="geometry" />
        </mxCell>
        <mxCell id="BA03BGmGkTq6ve4M8e0W-32" value="Собственный автомобиль" style="rounded=1;whiteSpace=wrap;html=1;" vertex="1" parent="1">
          <mxGeometry x="1370" y="730" width="100" height="40" as="geometry" />
        </mxCell>
        <mxCell id="BA03BGmGkTq6ve4M8e0W-33" value="" style="endArrow=classic;html=1;rounded=0;entryX=0;entryY=0.5;entryDx=0;entryDy=0;exitX=1;exitY=0.5;exitDx=0;exitDy=0;" edge="1" parent="1" source="BA03BGmGkTq6ve4M8e0W-22" target="BA03BGmGkTq6ve4M8e0W-32">
          <mxGeometry width="50" height="50" relative="1" as="geometry">
            <mxPoint x="1210" y="680" as="sourcePoint" />
            <mxPoint x="1260" y="630" as="targetPoint" />
          </mxGeometry>
        </mxCell>
        <mxCell id="BA03BGmGkTq6ve4M8e0W-34" value="" style="endArrow=classic;html=1;rounded=0;entryX=0;entryY=0.5;entryDx=0;entryDy=0;" edge="1" parent="1" target="BA03BGmGkTq6ve4M8e0W-30">
          <mxGeometry width="50" height="50" relative="1" as="geometry">
            <mxPoint x="1270" y="530" as="sourcePoint" />
            <mxPoint x="1380" y="760" as="targetPoint" />
          </mxGeometry>
        </mxCell>
        <mxCell id="BA03BGmGkTq6ve4M8e0W-35" value="" style="endArrow=classic;html=1;rounded=0;entryX=0;entryY=0.5;entryDx=0;entryDy=0;exitX=1;exitY=0.5;exitDx=0;exitDy=0;" edge="1" parent="1" source="BA03BGmGkTq6ve4M8e0W-22" target="BA03BGmGkTq6ve4M8e0W-31">
          <mxGeometry width="50" height="50" relative="1" as="geometry">
            <mxPoint x="1280" y="540" as="sourcePoint" />
            <mxPoint x="1380" y="705" as="targetPoint" />
          </mxGeometry>
        </mxCell>
        <mxCell id="BA03BGmGkTq6ve4M8e0W-36" value="" style="endArrow=classic;html=1;rounded=0;entryX=0;entryY=0.5;entryDx=0;entryDy=0;exitX=1;exitY=0.5;exitDx=0;exitDy=0;" edge="1" parent="1" source="BA03BGmGkTq6ve4M8e0W-22" target="BA03BGmGkTq6ve4M8e0W-27">
          <mxGeometry width="50" height="50" relative="1" as="geometry">
            <mxPoint x="1280" y="540" as="sourcePoint" />
            <mxPoint x="1380" y="655" as="targetPoint" />
          </mxGeometry>
        </mxCell>
        <mxCell id="BA03BGmGkTq6ve4M8e0W-37" value="" style="endArrow=classic;html=1;rounded=0;entryX=0;entryY=0.5;entryDx=0;entryDy=0;exitX=1;exitY=0.5;exitDx=0;exitDy=0;" edge="1" parent="1" source="BA03BGmGkTq6ve4M8e0W-22" target="BA03BGmGkTq6ve4M8e0W-29">
          <mxGeometry width="50" height="50" relative="1" as="geometry">
            <mxPoint x="1280" y="540" as="sourcePoint" />
            <mxPoint x="1380" y="605" as="targetPoint" />
          </mxGeometry>
        </mxCell>
        <mxCell id="BA03BGmGkTq6ve4M8e0W-38" value="" style="endArrow=classic;html=1;rounded=0;entryX=0;entryY=0.5;entryDx=0;entryDy=0;exitX=1;exitY=0.5;exitDx=0;exitDy=0;" edge="1" parent="1" source="BA03BGmGkTq6ve4M8e0W-22" target="BA03BGmGkTq6ve4M8e0W-28">
          <mxGeometry width="50" height="50" relative="1" as="geometry">
            <mxPoint x="1280" y="540" as="sourcePoint" />
            <mxPoint x="1380" y="555" as="targetPoint" />
          </mxGeometry>
        </mxCell>
        <mxCell id="BA03BGmGkTq6ve4M8e0W-39" value="Панель видов транспорта некликабельна. Автоматически назначается маршрут и расчитывается стоимость" style="rounded=1;whiteSpace=wrap;html=1;" vertex="1" parent="1">
          <mxGeometry x="1150" y="320" width="170" height="70" as="geometry" />
        </mxCell>
        <mxCell id="BA03BGmGkTq6ve4M8e0W-40" value="Невозможность выбора транспорта" style="rounded=1;whiteSpace=wrap;html=1;" vertex="1" parent="1">
          <mxGeometry x="1150" y="250" width="120" height="60" as="geometry" />
        </mxCell>
        <mxCell id="BA03BGmGkTq6ve4M8e0W-41" value="" style="endArrow=classic;html=1;rounded=0;entryX=0;entryY=0.5;entryDx=0;entryDy=0;exitX=1;exitY=0.5;exitDx=0;exitDy=0;" edge="1" parent="1" source="BA03BGmGkTq6ve4M8e0W-20" target="BA03BGmGkTq6ve4M8e0W-40">
          <mxGeometry width="50" height="50" relative="1" as="geometry">
            <mxPoint x="1100" y="320" as="sourcePoint" />
            <mxPoint x="1150" y="270" as="targetPoint" />
          </mxGeometry>
        </mxCell>
        <mxCell id="BA03BGmGkTq6ve4M8e0W-42" value="" style="endArrow=classic;html=1;rounded=0;entryX=0;entryY=0.5;entryDx=0;entryDy=0;exitX=1;exitY=0.5;exitDx=0;exitDy=0;" edge="1" parent="1" source="BA03BGmGkTq6ve4M8e0W-20" target="BA03BGmGkTq6ve4M8e0W-39">
          <mxGeometry width="50" height="50" relative="1" as="geometry">
            <mxPoint x="1080" y="330" as="sourcePoint" />
            <mxPoint x="1160" y="290" as="targetPoint" />
          </mxGeometry>
        </mxCell>
        <mxCell id="BA03BGmGkTq6ve4M8e0W-43" value="Поле ввода адреса точки Б" style="rounded=1;whiteSpace=wrap;html=1;" vertex="1" parent="1">
          <mxGeometry x="1000" y="-260" width="120" height="60" as="geometry" />
        </mxCell>
        <mxCell id="BA03BGmGkTq6ve4M8e0W-44" value="Поле ввода адреса точки А" style="rounded=1;whiteSpace=wrap;html=1;" vertex="1" parent="1">
          <mxGeometry x="1000" y="-130" width="120" height="60" as="geometry" />
        </mxCell>
        <mxCell id="BA03BGmGkTq6ve4M8e0W-45" value="Поле ввода минут" style="rounded=1;whiteSpace=wrap;html=1;" vertex="1" parent="1">
          <mxGeometry x="1000" y="40" width="120" height="60" as="geometry" />
        </mxCell>
        <mxCell id="BA03BGmGkTq6ve4M8e0W-46" value="Поле ввода часов" style="rounded=1;whiteSpace=wrap;html=1;" vertex="1" parent="1">
          <mxGeometry x="1000" y="130" width="120" height="60" as="geometry" />
        </mxCell>
        <mxCell id="BA03BGmGkTq6ve4M8e0W-47" style="edgeStyle=none;rounded=0;orthogonalLoop=1;jettySize=auto;html=1;exitX=1;exitY=0.5;exitDx=0;exitDy=0;entryX=0;entryY=0.5;entryDx=0;entryDy=0;" edge="1" parent="1" source="GoWqnwifKlF_Yr-xNYbi-4" target="BA03BGmGkTq6ve4M8e0W-45">
          <mxGeometry relative="1" as="geometry">
            <mxPoint x="1010" y="-10" as="targetPoint" />
            <mxPoint x="900" y="280" as="sourcePoint" />
          </mxGeometry>
        </mxCell>
        <mxCell id="BA03BGmGkTq6ve4M8e0W-48" style="edgeStyle=none;rounded=0;orthogonalLoop=1;jettySize=auto;html=1;entryX=0;entryY=0.5;entryDx=0;entryDy=0;" edge="1" parent="1" target="BA03BGmGkTq6ve4M8e0W-46">
          <mxGeometry relative="1" as="geometry">
            <mxPoint x="1010" y="80" as="targetPoint" />
            <mxPoint x="890" y="270" as="sourcePoint" />
          </mxGeometry>
        </mxCell>
        <mxCell id="BA03BGmGkTq6ve4M8e0W-49" value="Введены корректные данные" style="text;html=1;strokeColor=none;fillColor=none;align=center;verticalAlign=middle;whiteSpace=wrap;rounded=0;" vertex="1" parent="1">
          <mxGeometry x="1205" y="190" width="115" height="40" as="geometry" />
        </mxCell>
        <mxCell id="BA03BGmGkTq6ve4M8e0W-50" value="Введены не корректные данные" style="text;html=1;strokeColor=none;fillColor=none;align=center;verticalAlign=middle;whiteSpace=wrap;rounded=0;" vertex="1" parent="1">
          <mxGeometry x="1205" y="120" width="115" height="40" as="geometry" />
        </mxCell>
        <mxCell id="BA03BGmGkTq6ve4M8e0W-51" value="Установлены часы" style="text;html=1;strokeColor=none;fillColor=none;align=center;verticalAlign=middle;whiteSpace=wrap;rounded=0;" vertex="1" parent="1">
          <mxGeometry x="1380" y="190" width="115" height="40" as="geometry" />
        </mxCell>
        <mxCell id="BA03BGmGkTq6ve4M8e0W-52" value="&amp;nbsp;При некорректном вводе подсвечивается красным, ошибка «Вы ввели некорректное время»" style="text;html=1;strokeColor=none;fillColor=none;align=center;verticalAlign=middle;whiteSpace=wrap;rounded=0;" vertex="1" parent="1">
          <mxGeometry x="1400" y="120" width="170" height="60" as="geometry" />
        </mxCell>
        <mxCell id="BA03BGmGkTq6ve4M8e0W-53" value="" style="endArrow=classic;html=1;rounded=0;entryX=0;entryY=0.5;entryDx=0;entryDy=0;exitX=1;exitY=0.5;exitDx=0;exitDy=0;" edge="1" parent="1" source="BA03BGmGkTq6ve4M8e0W-46" target="BA03BGmGkTq6ve4M8e0W-50">
          <mxGeometry width="50" height="50" relative="1" as="geometry">
            <mxPoint x="1120" y="170" as="sourcePoint" />
            <mxPoint x="1170" y="120" as="targetPoint" />
          </mxGeometry>
        </mxCell>
        <mxCell id="BA03BGmGkTq6ve4M8e0W-54" value="" style="endArrow=classic;html=1;rounded=0;entryX=0;entryY=0.5;entryDx=0;entryDy=0;exitX=1;exitY=0.5;exitDx=0;exitDy=0;" edge="1" parent="1" source="BA03BGmGkTq6ve4M8e0W-46" target="BA03BGmGkTq6ve4M8e0W-49">
          <mxGeometry width="50" height="50" relative="1" as="geometry">
            <mxPoint x="1130" y="170" as="sourcePoint" />
            <mxPoint x="1215" y="150" as="targetPoint" />
          </mxGeometry>
        </mxCell>
        <mxCell id="BA03BGmGkTq6ve4M8e0W-55" value="" style="endArrow=classic;html=1;rounded=0;exitX=1;exitY=0.5;exitDx=0;exitDy=0;entryX=0;entryY=0.5;entryDx=0;entryDy=0;" edge="1" parent="1" source="BA03BGmGkTq6ve4M8e0W-50" target="BA03BGmGkTq6ve4M8e0W-52">
          <mxGeometry width="50" height="50" relative="1" as="geometry">
            <mxPoint x="1320" y="150" as="sourcePoint" />
            <mxPoint x="1400" y="130" as="targetPoint" />
          </mxGeometry>
        </mxCell>
        <mxCell id="BA03BGmGkTq6ve4M8e0W-56" value="" style="endArrow=classic;html=1;rounded=0;entryX=0;entryY=0.5;entryDx=0;entryDy=0;exitX=1;exitY=0.5;exitDx=0;exitDy=0;" edge="1" parent="1" source="BA03BGmGkTq6ve4M8e0W-49" target="BA03BGmGkTq6ve4M8e0W-51">
          <mxGeometry width="50" height="50" relative="1" as="geometry">
            <mxPoint x="1150" y="190" as="sourcePoint" />
            <mxPoint x="1235" y="170" as="targetPoint" />
          </mxGeometry>
        </mxCell>
        <mxCell id="BA03BGmGkTq6ve4M8e0W-57" value="Введены корректные данные" style="text;html=1;strokeColor=none;fillColor=none;align=center;verticalAlign=middle;whiteSpace=wrap;rounded=0;" vertex="1" parent="1">
          <mxGeometry x="1200" y="60" width="115" height="40" as="geometry" />
        </mxCell>
        <mxCell id="BA03BGmGkTq6ve4M8e0W-58" value="Введены не корректные данные" style="text;html=1;strokeColor=none;fillColor=none;align=center;verticalAlign=middle;whiteSpace=wrap;rounded=0;" vertex="1" parent="1">
          <mxGeometry x="1200" y="-10" width="115" height="40" as="geometry" />
        </mxCell>
        <mxCell id="BA03BGmGkTq6ve4M8e0W-59" value="Установлены минуты" style="text;html=1;strokeColor=none;fillColor=none;align=center;verticalAlign=middle;whiteSpace=wrap;rounded=0;" vertex="1" parent="1">
          <mxGeometry x="1410" y="60" width="115" height="40" as="geometry" />
        </mxCell>
        <mxCell id="BA03BGmGkTq6ve4M8e0W-60" value="&amp;nbsp;При некорректном вводе подсвечивается красным, ошибка «Вы ввели некорректное время»" style="text;html=1;strokeColor=none;fillColor=none;align=center;verticalAlign=middle;whiteSpace=wrap;rounded=0;" vertex="1" parent="1">
          <mxGeometry x="1385" y="-30" width="170" height="60" as="geometry" />
        </mxCell>
        <mxCell id="BA03BGmGkTq6ve4M8e0W-61" value="" style="endArrow=classic;html=1;rounded=0;entryX=0;entryY=0.5;entryDx=0;entryDy=0;" edge="1" parent="1" target="BA03BGmGkTq6ve4M8e0W-58">
          <mxGeometry width="50" height="50" relative="1" as="geometry">
            <mxPoint x="1120" y="70" as="sourcePoint" />
            <mxPoint x="1170" y="20" as="targetPoint" />
          </mxGeometry>
        </mxCell>
        <mxCell id="BA03BGmGkTq6ve4M8e0W-62" value="" style="endArrow=classic;html=1;rounded=0;entryX=0;entryY=0.5;entryDx=0;entryDy=0;" edge="1" parent="1" target="BA03BGmGkTq6ve4M8e0W-57">
          <mxGeometry width="50" height="50" relative="1" as="geometry">
            <mxPoint x="1120" y="70" as="sourcePoint" />
            <mxPoint x="1190" y="80" as="targetPoint" />
          </mxGeometry>
        </mxCell>
        <mxCell id="BA03BGmGkTq6ve4M8e0W-63" value="" style="endArrow=classic;html=1;rounded=0;entryX=0;entryY=0.5;entryDx=0;entryDy=0;" edge="1" parent="1" target="BA03BGmGkTq6ve4M8e0W-59">
          <mxGeometry width="50" height="50" relative="1" as="geometry">
            <mxPoint x="1320" y="80" as="sourcePoint" />
            <mxPoint x="1210" y="90" as="targetPoint" />
          </mxGeometry>
        </mxCell>
        <mxCell id="BA03BGmGkTq6ve4M8e0W-64" value="" style="endArrow=classic;html=1;rounded=0;entryX=0;entryY=0.5;entryDx=0;entryDy=0;exitX=1;exitY=0.5;exitDx=0;exitDy=0;" edge="1" parent="1" source="BA03BGmGkTq6ve4M8e0W-58" target="BA03BGmGkTq6ve4M8e0W-60">
          <mxGeometry width="50" height="50" relative="1" as="geometry">
            <mxPoint x="1140" y="90" as="sourcePoint" />
            <mxPoint x="1220" y="100" as="targetPoint" />
          </mxGeometry>
        </mxCell>
        <mxCell id="BA03BGmGkTq6ve4M8e0W-65" value="Введены корректные данные" style="text;html=1;strokeColor=none;fillColor=none;align=center;verticalAlign=middle;whiteSpace=wrap;rounded=0;" vertex="1" parent="1">
          <mxGeometry x="1200" y="-110" width="115" height="40" as="geometry" />
        </mxCell>
        <mxCell id="BA03BGmGkTq6ve4M8e0W-66" value="Введены не корректные данные" style="text;html=1;strokeColor=none;fillColor=none;align=center;verticalAlign=middle;whiteSpace=wrap;rounded=0;" vertex="1" parent="1">
          <mxGeometry x="1200" y="-180" width="115" height="40" as="geometry" />
        </mxCell>
        <mxCell id="BA03BGmGkTq6ve4M8e0W-67" value="" style="endArrow=classic;html=1;rounded=0;entryX=0;entryY=0.5;entryDx=0;entryDy=0;" edge="1" parent="1" target="BA03BGmGkTq6ve4M8e0W-66">
          <mxGeometry width="50" height="50" relative="1" as="geometry">
            <mxPoint x="1120" y="-100" as="sourcePoint" />
            <mxPoint x="1170" y="-150" as="targetPoint" />
          </mxGeometry>
        </mxCell>
        <mxCell id="BA03BGmGkTq6ve4M8e0W-68" value="" style="endArrow=classic;html=1;rounded=0;entryX=0;entryY=0.5;entryDx=0;entryDy=0;" edge="1" parent="1" target="BA03BGmGkTq6ve4M8e0W-65">
          <mxGeometry width="50" height="50" relative="1" as="geometry">
            <mxPoint x="1120" y="-100" as="sourcePoint" />
            <mxPoint x="1190" y="-90" as="targetPoint" />
          </mxGeometry>
        </mxCell>
        <mxCell id="BA03BGmGkTq6ve4M8e0W-69" value="" style="endArrow=classic;html=1;rounded=0;entryX=0;entryY=0.5;entryDx=0;entryDy=0;" edge="1" parent="1" target="BA03BGmGkTq6ve4M8e0W-72">
          <mxGeometry width="50" height="50" relative="1" as="geometry">
            <mxPoint x="1320" y="-90" as="sourcePoint" />
            <mxPoint x="1410" y="-90" as="targetPoint" />
          </mxGeometry>
        </mxCell>
        <mxCell id="BA03BGmGkTq6ve4M8e0W-70" value="" style="endArrow=classic;html=1;rounded=0;entryX=0;entryY=0.25;entryDx=0;entryDy=0;exitX=1;exitY=0.5;exitDx=0;exitDy=0;" edge="1" parent="1" source="BA03BGmGkTq6ve4M8e0W-66" target="BA03BGmGkTq6ve4M8e0W-71">
          <mxGeometry width="50" height="50" relative="1" as="geometry">
            <mxPoint x="1140" y="-80" as="sourcePoint" />
            <mxPoint x="1385" y="-170" as="targetPoint" />
          </mxGeometry>
        </mxCell>
        <mxCell id="BA03BGmGkTq6ve4M8e0W-71" value="При некорректном вводе подсвечивается красным, ошибка &quot;Вы ввели некорректный адрес&quot;" style="text;html=1;strokeColor=none;fillColor=none;align=center;verticalAlign=middle;whiteSpace=wrap;rounded=0;" vertex="1" parent="1">
          <mxGeometry x="1400" y="-190" width="160" height="30" as="geometry" />
        </mxCell>
        <mxCell id="BA03BGmGkTq6ve4M8e0W-72" value="Установлен адрес точки А" style="text;html=1;strokeColor=none;fillColor=none;align=center;verticalAlign=middle;whiteSpace=wrap;rounded=0;" vertex="1" parent="1">
          <mxGeometry x="1420" y="-105" width="80" height="30" as="geometry" />
        </mxCell>
        <mxCell id="BA03BGmGkTq6ve4M8e0W-73" value="Введены корректные данные" style="text;html=1;strokeColor=none;fillColor=none;align=center;verticalAlign=middle;whiteSpace=wrap;rounded=0;" vertex="1" parent="1">
          <mxGeometry x="1200" y="-240" width="115" height="40" as="geometry" />
        </mxCell>
        <mxCell id="BA03BGmGkTq6ve4M8e0W-74" value="Введены не корректные данные" style="text;html=1;strokeColor=none;fillColor=none;align=center;verticalAlign=middle;whiteSpace=wrap;rounded=0;" vertex="1" parent="1">
          <mxGeometry x="1200" y="-310" width="115" height="40" as="geometry" />
        </mxCell>
        <mxCell id="BA03BGmGkTq6ve4M8e0W-75" value="" style="endArrow=classic;html=1;rounded=0;entryX=0;entryY=0.5;entryDx=0;entryDy=0;" edge="1" parent="1" target="BA03BGmGkTq6ve4M8e0W-74">
          <mxGeometry width="50" height="50" relative="1" as="geometry">
            <mxPoint x="1120" y="-230" as="sourcePoint" />
            <mxPoint x="1170" y="-280" as="targetPoint" />
          </mxGeometry>
        </mxCell>
        <mxCell id="BA03BGmGkTq6ve4M8e0W-76" value="" style="endArrow=classic;html=1;rounded=0;entryX=0;entryY=0.5;entryDx=0;entryDy=0;" edge="1" parent="1" target="BA03BGmGkTq6ve4M8e0W-73">
          <mxGeometry width="50" height="50" relative="1" as="geometry">
            <mxPoint x="1120" y="-230" as="sourcePoint" />
            <mxPoint x="1190" y="-220" as="targetPoint" />
          </mxGeometry>
        </mxCell>
        <mxCell id="BA03BGmGkTq6ve4M8e0W-77" value="" style="endArrow=classic;html=1;rounded=0;entryX=0;entryY=0.5;entryDx=0;entryDy=0;" edge="1" parent="1" target="BA03BGmGkTq6ve4M8e0W-80">
          <mxGeometry width="50" height="50" relative="1" as="geometry">
            <mxPoint x="1320" y="-220" as="sourcePoint" />
            <mxPoint x="1410" y="-220" as="targetPoint" />
          </mxGeometry>
        </mxCell>
        <mxCell id="BA03BGmGkTq6ve4M8e0W-78" value="" style="endArrow=classic;html=1;rounded=0;entryX=0;entryY=0.25;entryDx=0;entryDy=0;exitX=1;exitY=0.5;exitDx=0;exitDy=0;" edge="1" parent="1" source="BA03BGmGkTq6ve4M8e0W-74" target="BA03BGmGkTq6ve4M8e0W-79">
          <mxGeometry width="50" height="50" relative="1" as="geometry">
            <mxPoint x="1140" y="-210" as="sourcePoint" />
            <mxPoint x="1385" y="-300" as="targetPoint" />
          </mxGeometry>
        </mxCell>
        <mxCell id="BA03BGmGkTq6ve4M8e0W-79" value="При некорректном вводе подсвечивается красным, ошибка &quot;Вы ввели некорректный адрес&quot;" style="text;html=1;strokeColor=none;fillColor=none;align=center;verticalAlign=middle;whiteSpace=wrap;rounded=0;" vertex="1" parent="1">
          <mxGeometry x="1405" y="-370" width="160" height="30" as="geometry" />
        </mxCell>
        <mxCell id="BA03BGmGkTq6ve4M8e0W-80" value="Установлен адрес точки Б" style="text;html=1;strokeColor=none;fillColor=none;align=center;verticalAlign=middle;whiteSpace=wrap;rounded=0;" vertex="1" parent="1">
          <mxGeometry x="1430" y="-270" width="80" height="30" as="geometry" />
        </mxCell>
      </root>
    </mxGraphModel>
  </diagram>
</mxfile>
